<?xml version="1.0" encoding="utf-8"?><svg width="auto" height="1120" style="overflow:visible " version="1.1" xmlns="http://www.w3.org/2000/svg"><rect x="20" y="20" width="200" height="40" style="fill:white;stroke:black;stroke-width:1" /><text x="30" y="30" font-size="10" style="fill:blue">rutas</text><rect x="240" y="20" width="200" height="40" style="fill:white;stroke:black;stroke-width:1" /><text x="250" y="30" font-size="10" style="fill:blue">ruta</text><path d="M220 40 C240 40 220 40 240 40" style="fill:transparent;stroke:black" /><text x="250" y="40" font-size="8" style="fill:black">nombre: Ruta 1</text><text x="250" y="50" font-size="8" style="fill:black">tipo: Turística</text><text x="250" y="60" font-size="8" style="fill:black">medioTransporte: Autobús</text><text x="250" y="70" font-size="8" style="fill:black">fechaInicio: 2023-10-28</text><text x="250" y="80" font-size="8" style="fill:black">duracion: 5 horas</text><text x="250" y="90" font-size="8" style="fill:black">agencia: Agencia Maravilla</text><text x="250" y="100" font-size="8" style="fill:black">descripcion: Esta ruta visita una zona de la costa y hace paradas en algunas playas.</text><text x="250" y="110" font-size="8" style="fill:black">personasAdecuadas: Personas de cualquier edad.</text><text x="250" y="120" font-size="8" style="fill:black">lugarInicio: Anabar Beach</text><text x="250" y="130" font-size="8" style="fill:black">direccionInicio: FXQ3+VCX, Anabar, Nauru</text><text x="250" y="140" font-size="8" style="fill:black">bibliografia: </text><text x="250" y="150" font-size="8" style="fill:black">puntuacion: 8.5</text><rect x="460" y="20" width="200" height="40" style="fill:white;stroke:black;stroke-width:1" /><text x="470" y="30" font-size="10" style="fill:blue">coordenadasInicio</text><path d="M440 40 C460 40 440 40 460 40" style="fill:transparent;stroke:black" /><text x="470" y="40" font-size="8" style="fill:black">longitud: 166.9535701783435</text><text x="470" y="50" font-size="8" style="fill:black">latitud: -0.5099406101857753</text><text x="470" y="60" font-size="8" style="fill:black">altitud: 0</text><rect x="460" y="70" width="200" height="40" style="fill:white;stroke:black;stroke-width:1" /><text x="470" y="80" font-size="10" style="fill:blue">hito</text><path d="M440 40 C460 40 440 90 460 90" style="fill:transparent;stroke:black" /><text x="470" y="90" font-size="8" style="fill:black">nombre: Hito 1</text><text x="470" y="100" font-size="8" style="fill:black">descripcion: Playa Anabar</text><rect x="680" y="70" width="200" height="40" style="fill:white;stroke:black;stroke-width:1" /><text x="690" y="80" font-size="10" style="fill:blue">fotografia</text><path d="M660 90 C680 90 660 90 680 90" style="fill:transparent;stroke:black" /><rect x="746" y="70" width="137" height="40" style="fill:green;stroke:black;stroke-width:1" /><text x="756" y="80" font-size="8" style="fill:white">foto1.jpg</text><rect x="680" y="120" width="200" height="40" style="fill:white;stroke:black;stroke-width:1" /><text x="690" y="130" font-size="10" style="fill:blue">video</text><path d="M660 90 C680 90 660 140 680 140" style="fill:transparent;stroke:black" /><rect x="746" y="120" width="137" height="40" style="fill:green;stroke:black;stroke-width:1" /><text x="756" y="130" font-size="8" style="fill:white">video1.mp4</text><rect x="680" y="170" width="200" height="40" style="fill:white;stroke:black;stroke-width:1" /><text x="690" y="180" font-size="10" style="fill:blue">distanciaHitoAnterior</text><path d="M660 90 C680 90 660 190 680 190" style="fill:transparent;stroke:black" /><text x="690" y="190" font-size="8" style="fill:black">kilometros: 166</text><text x="690" y="200" font-size="8" style="fill:black">metros: 35</text><rect x="680" y="220" width="200" height="40" style="fill:white;stroke:black;stroke-width:1" /><text x="690" y="230" font-size="10" style="fill:blue">coordenadasHito</text><path d="M660 90 C680 90 660 240 680 240" style="fill:transparent;stroke:black" /><text x="690" y="240" font-size="8" style="fill:black">longitud: 166.9535701783435</text><text x="690" y="250" font-size="8" style="fill:black">latitud: -0.5099406101857753</text><text x="690" y="260" font-size="8" style="fill:black">altitud: 0</text><rect x="240" y="370" width="200" height="40" style="fill:white;stroke:black;stroke-width:1" /><text x="250" y="380" font-size="10" style="fill:blue">ruta</text><path d="M220 40 C240 40 220 390 240 390" style="fill:transparent;stroke:black" /><text x="250" y="390" font-size="8" style="fill:black">nombre: Ruta 2</text><text x="250" y="400" font-size="8" style="fill:black">tipo: Turística</text><text x="250" y="410" font-size="8" style="fill:black">medioTransporte: Autobús</text><text x="250" y="420" font-size="8" style="fill:black">fechaInicio: 2023-10-28</text><text x="250" y="430" font-size="8" style="fill:black">duracion: 5 horas</text><text x="250" y="440" font-size="8" style="fill:black">agencia: Agencia Maravilla</text><text x="250" y="450" font-size="8" style="fill:black">descripcion: Esta ruta visita una zona de la costa y hace paradas en algunas playas.</text><text x="250" y="460" font-size="8" style="fill:black">personasAdecuadas: Personas de cualquier edad.</text><text x="250" y="470" font-size="8" style="fill:black">lugarInicio: Anabar Beach</text><text x="250" y="480" font-size="8" style="fill:black">direccionInicio: FXQ3+VCX, Anabar, Nauru</text><text x="250" y="490" font-size="8" style="fill:black">bibliografia: </text><text x="250" y="500" font-size="8" style="fill:black">puntuacion: 8.5</text><rect x="460" y="370" width="200" height="40" style="fill:white;stroke:black;stroke-width:1" /><text x="470" y="380" font-size="10" style="fill:blue">coordenadasInicio</text><path d="M440 390 C460 390 440 390 460 390" style="fill:transparent;stroke:black" /><text x="470" y="390" font-size="8" style="fill:black">longitud: 166.9535701783435</text><text x="470" y="400" font-size="8" style="fill:black">latitud: -0.5099406101857753</text><text x="470" y="410" font-size="8" style="fill:black">altitud: 0</text><rect x="460" y="420" width="200" height="40" style="fill:white;stroke:black;stroke-width:1" /><text x="470" y="430" font-size="10" style="fill:blue">hito</text><path d="M440 390 C460 390 440 440 460 440" style="fill:transparent;stroke:black" /><text x="470" y="440" font-size="8" style="fill:black">nombre: Hito 1</text><text x="470" y="450" font-size="8" style="fill:black">descripcion: Playa Anabar</text><rect x="680" y="420" width="200" height="40" style="fill:white;stroke:black;stroke-width:1" /><text x="690" y="430" font-size="10" style="fill:blue">fotografia</text><path d="M660 440 C680 440 660 440 680 440" style="fill:transparent;stroke:black" /><rect x="746" y="420" width="137" height="40" style="fill:green;stroke:black;stroke-width:1" /><text x="756" y="430" font-size="8" style="fill:white">foto1.jpg</text><rect x="680" y="470" width="200" height="40" style="fill:white;stroke:black;stroke-width:1" /><text x="690" y="480" font-size="10" style="fill:blue">video</text><path d="M660 440 C680 440 660 490 680 490" style="fill:transparent;stroke:black" /><rect x="746" y="470" width="137" height="40" style="fill:green;stroke:black;stroke-width:1" /><text x="756" y="480" font-size="8" style="fill:white">video1.mp4</text><rect x="680" y="520" width="200" height="40" style="fill:white;stroke:black;stroke-width:1" /><text x="690" y="530" font-size="10" style="fill:blue">distanciaHitoAnterior</text><path d="M660 440 C680 440 660 540 680 540" style="fill:transparent;stroke:black" /><text x="690" y="540" font-size="8" style="fill:black">kilometros: 166</text><text x="690" y="550" font-size="8" style="fill:black">metros: 35</text><rect x="680" y="570" width="200" height="40" style="fill:white;stroke:black;stroke-width:1" /><text x="690" y="580" font-size="10" style="fill:blue">coordenadasHito</text><path d="M660 440 C680 440 660 590 680 590" style="fill:transparent;stroke:black" /><text x="690" y="590" font-size="8" style="fill:black">longitud: 166.9535701783435</text><text x="690" y="600" font-size="8" style="fill:black">latitud: -0.5099406101857753</text><text x="690" y="610" font-size="8" style="fill:black">altitud: 0</text><rect x="240" y="720" width="200" height="40" style="fill:white;stroke:black;stroke-width:1" /><text x="250" y="730" font-size="10" style="fill:blue">ruta</text><path d="M220 40 C240 40 220 740 240 740" style="fill:transparent;stroke:black" /><text x="250" y="740" font-size="8" style="fill:black">nombre: Ruta 3</text><text x="250" y="750" font-size="8" style="fill:black">tipo: Turística</text><text x="250" y="760" font-size="8" style="fill:black">medioTransporte: Autobús</text><text x="250" y="770" font-size="8" style="fill:black">fechaInicio: 2023-10-28</text><text x="250" y="780" font-size="8" style="fill:black">duracion: 5 horas</text><text x="250" y="790" font-size="8" style="fill:black">agencia: Agencia Maravilla</text><text x="250" y="800" font-size="8" style="fill:black">descripcion: Esta ruta visita una zona de la costa y hace paradas en algunas playas.</text><text x="250" y="810" font-size="8" style="fill:black">personasAdecuadas: Personas de cualquier edad.</text><text x="250" y="820" font-size="8" style="fill:black">lugarInicio: Anabar Beach</text><text x="250" y="830" font-size="8" style="fill:black">direccionInicio: FXQ3+VCX, Anabar, Nauru</text><text x="250" y="840" font-size="8" style="fill:black">bibliografia: </text><text x="250" y="850" font-size="8" style="fill:black">puntuacion: 8.5</text><rect x="460" y="720" width="200" height="40" style="fill:white;stroke:black;stroke-width:1" /><text x="470" y="730" font-size="10" style="fill:blue">coordenadasInicio</text><path d="M440 740 C460 740 440 740 460 740" style="fill:transparent;stroke:black" /><text x="470" y="740" font-size="8" style="fill:black">longitud: 166.9535701783435</text><text x="470" y="750" font-size="8" style="fill:black">latitud: -0.5099406101857753</text><text x="470" y="760" font-size="8" style="fill:black">altitud: 0</text><rect x="460" y="770" width="200" height="40" style="fill:white;stroke:black;stroke-width:1" /><text x="470" y="780" font-size="10" style="fill:blue">hito</text><path d="M440 740 C460 740 440 790 460 790" style="fill:transparent;stroke:black" /><text x="470" y="790" font-size="8" style="fill:black">nombre: Hito 1</text><text x="470" y="800" font-size="8" style="fill:black">descripcion: Playa Anabar</text><rect x="680" y="770" width="200" height="40" style="fill:white;stroke:black;stroke-width:1" /><text x="690" y="780" font-size="10" style="fill:blue">fotografia</text><path d="M660 790 C680 790 660 790 680 790" style="fill:transparent;stroke:black" /><rect x="746" y="770" width="137" height="40" style="fill:green;stroke:black;stroke-width:1" /><text x="756" y="780" font-size="8" style="fill:white">foto1.jpg</text><rect x="680" y="820" width="200" height="40" style="fill:white;stroke:black;stroke-width:1" /><text x="690" y="830" font-size="10" style="fill:blue">video</text><path d="M660 790 C680 790 660 840 680 840" style="fill:transparent;stroke:black" /><rect x="746" y="820" width="137" height="40" style="fill:green;stroke:black;stroke-width:1" /><text x="756" y="830" font-size="8" style="fill:white">video1.mp4</text><rect x="680" y="870" width="200" height="40" style="fill:white;stroke:black;stroke-width:1" /><text x="690" y="880" font-size="10" style="fill:blue">distanciaHitoAnterior</text><path d="M660 790 C680 790 660 890 680 890" style="fill:transparent;stroke:black" /><text x="690" y="890" font-size="8" style="fill:black">kilometros: 166</text><text x="690" y="900" font-size="8" style="fill:black">metros: 35</text><rect x="680" y="920" width="200" height="40" style="fill:white;stroke:black;stroke-width:1" /><text x="690" y="930" font-size="10" style="fill:blue">coordenadasHito</text><path d="M660 790 C680 790 660 940 680 940" style="fill:transparent;stroke:black" /><text x="690" y="940" font-size="8" style="fill:black">longitud: 166.9535701783435</text><text x="690" y="950" font-size="8" style="fill:black">latitud: -0.5099406101857753</text><text x="690" y="960" font-size="8" style="fill:black">altitud: 0</text></svg>